<svg width="88" height="88" viewBox="0 0 88 88" fill="none" xmlns="http://www.w3.org/2000/svg">
<path fill-rule="evenodd" clip-rule="evenodd" d="M31.167 12.8359C31.167 11.3772 31.7465 9.9783 32.7779 8.94685C33.8094 7.9154 35.2083 7.33594 36.667 7.33594H51.3337C52.7924 7.33594 54.1913 7.9154 55.2227 8.94685C56.2542 9.9783 56.8337 11.3772 56.8337 12.8359H62.3337C63.7924 12.8359 65.1913 13.4154 66.2227 14.4469C67.2542 15.4783 67.8337 16.8772 67.8337 18.3359V45.8359H64.167V18.3359C64.167 17.8497 63.9738 17.3834 63.63 17.0396C63.2862 16.6958 62.8199 16.5026 62.3337 16.5026H56.8337C56.8337 17.9613 56.2542 19.3602 55.2227 20.3917C54.1913 21.4231 52.7924 22.0026 51.3337 22.0026H36.667C35.2083 22.0026 33.8094 21.4231 32.7779 20.3917C31.7465 19.3602 31.167 17.9613 31.167 16.5026H25.667C25.1808 16.5026 24.7144 16.6958 24.3706 17.0396C24.0268 17.3834 23.8337 17.8497 23.8337 18.3359V69.6693C23.8337 70.1555 24.0268 70.6218 24.3706 70.9656C24.7144 71.3095 25.1808 71.5026 25.667 71.5026H47.667V75.1693H25.667C24.2083 75.1693 22.8094 74.5898 21.7779 73.5584C20.7465 72.5269 20.167 71.128 20.167 69.6693V18.3359C20.167 16.8772 20.7465 15.4783 21.7779 14.4469C22.8094 13.4154 24.2083 12.8359 25.667 12.8359H31.167ZM36.667 11.0026C36.1808 11.0026 35.7144 11.1958 35.3706 11.5396C35.0268 11.8834 34.8337 12.3497 34.8337 12.8359V16.5026C34.8337 16.9888 35.0268 17.4551 35.3706 17.799C35.7144 18.1428 36.1808 18.3359 36.667 18.3359H51.3337C51.8199 18.3359 52.2862 18.1428 52.63 17.799C52.9738 17.4551 53.167 16.9888 53.167 16.5026V12.8359C53.167 12.3497 52.9738 11.8834 52.63 11.5396C52.2862 11.1958 51.8199 11.0026 51.3337 11.0026H36.667ZM42.167 29.3359V34.8359H36.667V38.5026H42.167V44.0026H45.8337V38.5026H51.3337V34.8359H45.8337V29.3359H42.167ZM51.3337 49.5026C50.8474 49.5026 50.3811 49.6958 50.0373 50.0396C49.6935 50.3834 49.5003 50.8497 49.5003 51.3359V63.7824C49.5004 65.895 50.022 67.9749 51.0189 69.8376C52.0158 71.7002 53.4571 73.2879 55.2148 74.4598L61.3162 78.5298C61.6174 78.7308 61.9715 78.838 62.3337 78.838C62.6958 78.838 63.0499 78.7308 63.3512 78.5298L69.4525 74.4598C71.21 73.2881 72.6511 71.7006 73.648 69.8384C74.6448 67.9761 75.1666 65.8966 75.167 63.7843V51.3359C75.167 50.8497 74.9738 50.3834 74.63 50.0396C74.2862 49.6958 73.8199 49.5026 73.3337 49.5026H51.3337ZM69.1298 59.9654L61.7965 67.2988C61.4527 67.6425 60.9865 67.8355 60.5003 67.8355C60.0142 67.8355 59.548 67.6425 59.2042 67.2988L55.5375 63.6321L58.1298 61.0398L60.5003 63.4103L66.5375 57.3731L69.1298 59.9654Z" fill="#111111"/>
</svg>
