<svg width="48" height="49" viewBox="0 0 48 49" fill="none" xmlns="http://www.w3.org/2000/svg">
<path d="M33.5 7.62V4.5C33.5 3.68 32.82 3 32 3C31.18 3 30.5 3.68 30.5 4.5V7.5H17.5V4.5C17.5 3.68 16.82 3 16 3C15.18 3 14.5 3.68 14.5 4.5V7.62C9.1 8.12 6.48 11.34 6.08 16.12C6.04 16.7 6.52 17.18 7.08 17.18H40.92C41.5 17.18 41.98 16.68 41.92 16.12C41.52 11.34 38.9 8.12 33.5 7.62Z" fill="#011A34"/>
<path d="M38 30.5C33.58 30.5 30 34.08 30 38.5C30 40 30.42 41.42 31.16 42.62C32.54 44.94 35.08 46.5 38 46.5C40.92 46.5 43.46 44.94 44.84 42.62C45.58 41.42 46 40 46 38.5C46 34.08 42.42 30.5 38 30.5ZM42.14 37.64L37.88 41.58C37.6 41.84 37.22 41.98 36.86 41.98C36.48 41.98 36.1 41.84 35.8 41.54L33.82 39.56C33.24 38.98 33.24 38.02 33.82 37.44C34.4 36.86 35.36 36.86 35.94 37.44L36.9 38.4L40.1 35.44C40.7 34.88 41.66 34.92 42.22 35.52C42.78 36.12 42.74 37.06 42.14 37.64Z" fill="#011A34"/>
<path d="M40 20.18H8C6.9 20.18 6 21.08 6 22.18V34.5C6 40.5 9 44.5 16 44.5H25.86C27.24 44.5 28.2 43.16 27.76 41.86C27.36 40.7 27.02 39.42 27.02 38.5C27.02 32.44 31.96 27.5 38.02 27.5C38.6 27.5 39.18 27.54 39.74 27.64C40.94 27.82 42.02 26.88 42.02 25.68V22.2C42 21.08 41.1 20.18 40 20.18ZM18.42 36.92C18.04 37.28 17.52 37.5 17 37.5C16.48 37.5 15.96 37.28 15.58 36.92C15.22 36.54 15 36.02 15 35.5C15 34.98 15.22 34.46 15.58 34.08C15.78 33.9 15.98 33.76 16.24 33.66C16.98 33.34 17.86 33.52 18.42 34.08C18.78 34.46 19 34.98 19 35.5C19 36.02 18.78 36.54 18.42 36.92ZM18.42 29.92C18.32 30 18.22 30.08 18.12 30.16C18 30.24 17.88 30.3 17.76 30.34C17.64 30.4 17.52 30.44 17.4 30.46C17.26 30.48 17.12 30.5 17 30.5C16.48 30.5 15.96 30.28 15.58 29.92C15.22 29.54 15 29.02 15 28.5C15 27.98 15.22 27.46 15.58 27.08C16.04 26.62 16.74 26.4 17.4 26.54C17.52 26.56 17.64 26.6 17.76 26.66C17.88 26.7 18 26.76 18.12 26.84C18.22 26.92 18.32 27 18.42 27.08C18.78 27.46 19 27.98 19 28.5C19 29.02 18.78 29.54 18.42 29.92ZM25.42 29.92C25.04 30.28 24.52 30.5 24 30.5C23.48 30.5 22.96 30.28 22.58 29.92C22.22 29.54 22 29.02 22 28.5C22 27.98 22.22 27.46 22.58 27.08C23.34 26.34 24.68 26.34 25.42 27.08C25.78 27.46 26 27.98 26 28.5C26 29.02 25.78 29.54 25.42 29.92Z" fill="#011A34"/>
</svg>
