<svg width="44" height="43" viewBox="0 0 44 43" fill="none" xmlns="http://www.w3.org/2000/svg">
<path d="M25.8001 33.1C22.3001 31.8 18.7001 31.6 15.4001 32.5C13.1001 33.1 10.9001 34.3 8.90012 35.8L7.50009 37L7.1001 37.4L8.00009 38.2C8.10009 38.2 8.1001 38.3 8.2001 38.4C8.4001 38.6 8.60012 38.7 8.90012 38.9L9.50009 39.3L10.1001 38.8C10.2001 38.7 10.4001 38.5 10.6001 38.4C12.4001 36.9 14.4001 35.9 16.5001 35.4C19.2001 34.7 22.1001 34.8 25.0001 35.9C27.4001 36.8 32.3001 37.9 38.2001 35.4L38.4001 35.3L38.7001 35C38.7001 34.9 38.8001 34.9 38.9001 34.8C39.4001 34.2 39.9001 33.6 40.3001 32.9L42.3001 29.8L39.1001 31.6C34.4001 34.2 30.1001 34.7 25.8001 33.1Z" fill="#011A34"/>
<path d="M12.1 22.3C14.8 21.6 17.7 21.7 20.6 22.8C23.8 24 32 25.7 41.2 17.4L42.7 15.9L42.8 15.8L43.2 15.4L43 14.9C42.9 14.5 42.7 14 42.5 13.5L42 12.1L41 13.1C40.9 13.3 40.7 13.4 40.5 13.6C36.1 18.1 29.3 22.7 21.5 19.9C18 18.6 14.4 18.4 11.1 19.3C7.90001 20.2 5.1 21.9 2.5 24.3V24.2L1 25.8C1 25.9 0.900018 25.9 0.800018 26L0.5 26.3L0.600006 26.7C0.700006 27.2 0.9 27.7 1 28.2L1.60001 29.8L2.60001 28.5C2.70001 28.3 2.9 28.2 3 28C5.1 26.1 8.00001 23.4 12.1 22.3Z" fill="#011A34"/>
<path d="M2.40002 20.5C4.70002 18.1 7.30001 16.6 10.1 15.8C12.8 15.1 15.7 15.2 18.6 16.3C27.6 19.6 35.4 14.2 38.8 11.3L40.1 10L40.6 9.59998L40.2 9C39.9 8.7 39.7 8.29999 39.4 7.89999L38.8 7.09998L38.1 7.79999C38 7.89999 37.8 8.09998 37.7 8.19998C33.5 12.2 27 16.3 19.6 13.5C16.1 12.2 12.5 12 9.20001 12.9C7.10001 13.5 5.10001 14.5 3.10001 15.8L1 17.5C0.8 17.7 0.7 17.8 0.5 18L0.300018 18.2V18.5C0.200018 19.2 0.200006 19.9 0.100006 20.5L0 23L1.70001 21.2C1.90001 21 2.10002 20.7 2.40002 20.5Z" fill="#011A34"/>
<path d="M28.6999 39.9L28.4999 40.5L28.6999 39.9C28.3999 39.8 28.1999 39.7 27.8999 39.6C24.3999 38.3 20.7999 38.1 17.4999 39C16.7999 39.2 16.0999 39.4 15.3999 39.7L12.9999 40.8L12.3999 41.1L14.3999 41.8C14.9999 42 15.5999 42.2 16.1999 42.4L16.4999 42.5L16.7999 42.4C17.0999 42.3 17.3999 42.1 17.6999 42.1C17.8999 42.1 18.0999 42 18.2999 41.9C20.6999 41.3 23.2999 41.3 26.0999 42.2C26.3999 42.3 26.5999 42.4 26.8999 42.5L27.3999 42.7L27.6999 42.6C28.3999 42.4 29.1999 42.2 29.7999 41.9L32.5999 40.9L29.6999 40.2C29.3999 40.1 28.9999 40 28.6999 39.9Z" fill="#011A34"/>
<path d="M44 19.2L42.5 20.7C42.3 20.9 42.1001 21.1 41.9001 21.3C37.8001 25.2 31.2 29.3999 23.8 26.5999C20.3 25.2999 16.7001 25.1 13.4001 26C10.3001 26.9 7.50003 28.5 5.00003 30.9L3.70004 32.3L3.30005 32.8L3.70004 33.4C4.00004 33.8 4.20005 34.1 4.40005 34.5L5.00003 35.4L5.70004 34.5C5.80004 34.4 6.00004 34.1999 6.10004 34.0999C8.50004 31.4999 11.1 29.8999 14.1 29.0999C16.8 28.3999 19.7 28.4999 22.6 29.5999C25.1 30.4999 27.7 30.8 30.3 30.5C34.9 30 39.5001 27.4 42.9001 24.5C43.1001 24.3 43.3 24.2 43.5 24L43.8 23.7V23.4C43.8 22.8 43.9001 22.1 43.9001 21.5L44 19.2Z" fill="#011A34"/>
<path d="M5.99994 10L5.69995 9.40002L5.99994 10C6.59994 9.70003 7.29996 9.50002 7.89996 9.30002C10.6 8.60002 13.5 8.70002 16.4 9.80002C18.3 10.5 20.2 10.8 22.3 10.8C26.5 10.8 30.6999 9.30002 34.5999 6.40002L36.0999 5.20001L36.5999 4.80002L35.7 4.10001C35.4 3.80001 34.9999 3.50002 34.5999 3.30002L33.9999 2.90002L33.4999 3.30002C33.2999 3.40002 33.1999 3.60001 32.9999 3.70001C27.6999 7.70001 22.4 8.80002 17.4 6.90002C13.8 5.60002 10.1999 5.30002 6.59995 6.40002C6.29994 6.50002 5.99995 6.60001 5.59995 6.70001L5.39996 6.80002L5.09995 7.10001C5.09995 7.20001 4.99996 7.20002 4.89996 7.30002C4.49996 7.90002 3.99995 8.40003 3.59995 9.00003L1.69995 11.9L4.79996 10.3C5.29996 10.3 5.69994 10.1 5.99994 10Z" fill="#011A34"/>
<path d="M14.2 3.19998L14.5 3.29999C15.8 3.79999 17.8 4.29999 20.3 4.29999C22.9 4.29999 25.4 3.69998 27.9 2.69998L31 1.19998L28.9 0.5C28.3 0.3 27.7 0.1 27 0H26.7L26.4 0.0999756C26.1 0.199976 25.8 0.4 25.5 0.5C22.5 1.6 19.5 1.8 16.6 1C16.3 0.9 16 0.799982 15.7 0.699982L15.4 0.599976L15.1 0.699982C14.5 0.899982 13.9 1.09999 13.3 1.39999L11 2.39999L13.4 3.09998C13.6 2.99998 13.9 3.09998 14.2 3.19998Z" fill="#011A34"/>
</svg>
