<svg width="48" height="49" viewBox="0 0 48 49" fill="none" xmlns="http://www.w3.org/2000/svg">
<path d="M35.06 16.04C34.92 16.02 34.78 16.02 34.64 16.04C31.54 15.94 29.08 13.4 29.08 10.28C29.08 7.1 31.66 4.5 34.86 4.5C38.04 4.5 40.64 7.08 40.64 10.28C40.62 13.4 38.16 15.94 35.06 16.04Z" fill="#011A34"/>
<path d="M41.58 29.9C39.34 31.4 36.2 31.96 33.3 31.58C34.06 29.94 34.46 28.12 34.48 26.2C34.48 24.2 34.04 22.3 33.2 20.64C36.16 20.24 39.3 20.8 41.56 22.3C44.72 24.38 44.72 27.8 41.58 29.9Z" fill="#011A34"/>
<path d="M12.88 16.04C13.02 16.02 13.16 16.02 13.3 16.04C16.4 15.94 18.86 13.4 18.86 10.28C18.86 7.08 16.28 4.5 13.08 4.5C9.90001 4.5 7.32001 7.08 7.32001 10.28C7.32001 13.4 9.78001 15.94 12.88 16.04Z" fill="#011A34"/>
<path d="M13.1 26.2C13.1 28.14 13.52 29.98 14.28 31.64C11.46 31.94 8.51999 31.34 6.35999 29.92C3.19999 27.82 3.19999 24.4 6.35999 22.3C8.49999 20.86 11.52 20.28 14.36 20.6C13.54 22.28 13.1 24.18 13.1 26.2Z" fill="#011A34"/>
<path d="M24.24 32.24C24.08 32.22 23.9 32.22 23.72 32.24C20.04 32.12 17.1 29.1 17.1 25.38C17.12 21.58 20.18 18.5 24 18.5C27.8 18.5 30.88 21.58 30.88 25.38C30.86 29.1 27.94 32.12 24.24 32.24Z" fill="#011A34"/>
<path d="M17.74 36.38C14.72 38.4 14.72 41.72 17.74 43.72C21.18 46.02 26.82 46.02 30.26 43.72C33.28 41.7 33.28 38.38 30.26 36.38C26.84 34.08 21.2 34.08 17.74 36.38Z" fill="#011A34"/>
</svg>
