<svg width="48" height="48" viewBox="0 0 48 48" fill="none" xmlns="http://www.w3.org/2000/svg">
<path d="M16.18 23.2599H6.8C6.96 13.9199 8.8 12.3799 14.54 8.97994C15.2 8.57994 15.42 7.73994 15.02 7.05994C14.64 6.39994 13.78 6.17994 13.12 6.57994C6.36 10.5799 4 13.0199 4 24.6399V35.4199C4 38.8399 6.78 41.5999 10.18 41.5999H16.18C19.7 41.5999 22.36 38.9399 22.36 35.4199V29.4199C22.36 25.9199 19.7 23.2599 16.18 23.2599Z" fill="#3D4754"/>
<path d="M37.82 23.2599H28.44C28.6 13.9199 30.44 12.3799 36.18 8.97994C36.84 8.57994 37.06 7.73994 36.66 7.05994C36.26 6.39994 35.42 6.17994 34.74 6.57994C27.98 10.5799 25.62 13.0199 25.62 24.6599V35.4399C25.62 38.8599 28.4 41.6199 31.8 41.6199H37.8C41.32 41.6199 43.98 38.9599 43.98 35.4399V29.4399C44 25.9199 41.34 23.2599 37.82 23.2599Z" fill="#3D4754"/>
</svg>
