<svg width="42" height="42" viewBox="0 0 42 42" fill="none" xmlns="http://www.w3.org/2000/svg">
<g clip-path="url(#clip0_437_1387)">
<path d="M25.9386 38.7435V36.7736C25.9386 36.3524 26.1059 35.9484 26.4037 35.6506C26.7016 35.3527 27.1055 35.1854 27.5267 35.1854H31.9116C32.1375 35.1793 32.3601 35.1287 32.5664 35.0364C32.7728 34.9441 32.9589 34.8119 33.114 34.6475C33.2692 34.4831 33.3903 34.2897 33.4705 34.0783C33.5508 33.867 33.5884 33.6419 33.5814 33.4159V33.4485C33.5815 33.4063 33.5816 31.1826 33.5816 31.1025C33.5931 30.7988 33.7094 30.5085 33.9106 30.2807C34.2432 29.8973 34.4249 29.406 34.4218 28.8985L34.417 28.4198C34.4163 28.2719 34.4607 28.1273 34.5441 28.0052C34.6276 27.8831 34.7462 27.7893 34.8842 27.7362H35.6502C35.7921 27.7397 35.9331 27.7122 36.0634 27.6557C36.1936 27.5992 36.31 27.5151 36.4045 27.4091C36.5206 27.2727 36.5952 27.106 36.6193 26.9285C36.6435 26.7511 36.6162 26.5705 36.5408 26.4081C35.706 24.6568 34.9779 22.8567 34.3605 21.0175C34.2511 20.6679 34.1985 20.3029 34.2048 19.9366L34.204 16.3517C34.2037 15.39 34.0703 14.4329 33.8075 13.5078L33.803 13.4919C33.3854 11.9695 32.614 10.5673 31.5516 9.3996C31.3224 9.15255 31.0818 8.91247 30.8297 8.67936C30.6716 8.52714 30.5105 8.37726 30.3435 8.23238C27.9451 6.14774 24.8725 5.0031 21.6948 5.01054C18.4113 5.00231 15.2281 6.14197 12.696 8.2324C10.5164 10.1133 9.04675 12.6839 8.53154 15.5164C8.01634 18.3488 8.48668 21.2723 9.86429 23.8003C11.468 26.9054 12.7238 32.0123 13.0434 37.308V38.7435" stroke="white" stroke-width="1.43544" stroke-miterlimit="10"/>
<path d="M16.5301 17.2119C17.7193 17.2119 18.6833 16.2478 18.6833 15.0587C18.6833 13.8695 17.7193 12.9055 16.5301 12.9055C15.341 12.9055 14.377 13.8695 14.377 15.0587C14.377 16.2478 15.341 17.2119 16.5301 17.2119Z" stroke="white" stroke-width="1.43544" stroke-miterlimit="10"/>
<path d="M27.6546 23.6714C29.042 23.6714 30.1666 22.5467 30.1666 21.1594C30.1666 19.772 29.042 18.6473 27.6546 18.6473C26.2673 18.6473 25.1426 19.772 25.1426 21.1594C25.1426 22.5467 26.2673 23.6714 27.6546 23.6714Z" stroke="white" stroke-width="1.43544" stroke-miterlimit="10"/>
<path d="M18.6854 28.6954C19.4782 28.6954 20.1209 28.0527 20.1209 27.26C20.1209 26.4672 19.4782 25.8245 18.6854 25.8245C17.8927 25.8245 17.25 26.4672 17.25 27.26C17.25 28.0527 17.8927 28.6954 18.6854 28.6954Z" stroke="white" stroke-width="1.43544" stroke-miterlimit="10"/>
<path d="M18.3848 16.1406L25.3898 20.0828" stroke="white" stroke-width="1.43544" stroke-miterlimit="10"/>
<path d="M19.9219 26.5423L25.6274 22.6362" stroke="white" stroke-width="1.43544" stroke-miterlimit="10"/>
<path d="M16.8906 17.2119L18.3261 25.8245" stroke="white" stroke-width="1.43544" stroke-miterlimit="10"/>
</g>
<defs>
<clipPath id="clip0_437_1387">
<rect width="34.4507" height="34.4507" fill="white" transform="translate(4.33008 4.29285)"/>
</clipPath>
</defs>
</svg>
