<svg width="20" height="20" viewBox="0 0 20 20" fill="none" xmlns="http://www.w3.org/2000/svg">
<path fill-rule="evenodd" clip-rule="evenodd" d="M7.29167 1.66699C7.29167 1.32181 7.01184 1.04199 6.66667 1.04199C6.32149 1.04199 6.04167 1.32181 6.04167 1.66699V2.94297C4.06187 3.16881 2.52099 4.84 2.50021 6.87533H17.4998C17.479 4.84 15.9381 3.16881 13.9583 2.94296V1.66699C13.9583 1.32181 13.6785 1.04199 13.3333 1.04199C12.9882 1.04199 12.7083 1.32181 12.7083 1.66699V2.91699H7.29167V1.66699ZM17.5 8.12533H2.5V14.3337C2.5 16.5428 4.29086 18.3337 6.5 18.3337H13.5C15.7091 18.3337 17.5 16.5428 17.5 14.3337V8.12533ZM12.9704 11.2452C13.1977 10.9855 13.1714 10.5906 12.9116 10.3633C12.6518 10.136 12.257 10.1623 12.0297 10.4221L9.63807 13.1553C9.56466 13.2392 9.4382 13.2505 9.35114 13.1808L7.89046 12.0123C7.62092 11.7967 7.22761 11.8404 7.01198 12.1099C6.79635 12.3794 6.84005 12.7727 7.10959 12.9884L8.57027 14.1569C9.17968 14.6444 10.0649 14.5658 10.5788 13.9785L12.9704 11.2452Z" fill="white"/>
</svg>
