<svg width="20" height="20" viewBox="0 0 20 20" fill="none" xmlns="http://www.w3.org/2000/svg">
<path d="M14.9999 5.967C14.9499 5.95866 14.8916 5.95866 14.8416 5.967C13.6916 5.92533 12.7749 4.98366 12.7749 3.81699C12.7749 2.62533 13.7332 1.66699 14.9249 1.66699C16.1166 1.66699 17.0749 2.63366 17.0749 3.81699C17.0666 4.98366 16.1499 5.92533 14.9999 5.967Z" stroke="#6544C5" stroke-width="1.5" stroke-linecap="round" stroke-linejoin="round"/>
<path d="M14.1417 12.0338C15.2834 12.2255 16.5417 12.0255 17.425 11.4338C18.6 10.6505 18.6 9.36713 17.425 8.58379C16.5334 7.99213 15.2584 7.79212 14.1167 7.99212" stroke="#6544C5" stroke-width="1.5" stroke-linecap="round" stroke-linejoin="round"/>
<path d="M4.97539 5.967C5.02539 5.95866 5.08372 5.95866 5.13372 5.967C6.28372 5.92533 7.20039 4.98366 7.20039 3.81699C7.20039 2.62533 6.24206 1.66699 5.05039 1.66699C3.85873 1.66699 2.90039 2.63366 2.90039 3.81699C2.90872 4.98366 3.82539 5.92533 4.97539 5.967Z" stroke="#6544C5" stroke-width="1.5" stroke-linecap="round" stroke-linejoin="round"/>
<path d="M5.83353 12.0338C4.69186 12.2255 3.43353 12.0255 2.5502 11.4338C1.3752 10.6505 1.3752 9.36713 2.5502 8.58379C3.44186 7.99213 4.71686 7.79212 5.85853 7.99212" stroke="#6544C5" stroke-width="1.5" stroke-linecap="round" stroke-linejoin="round"/>
<path d="M9.9999 12.1916C9.9499 12.1833 9.89157 12.1833 9.84157 12.1916C8.69157 12.1499 7.7749 11.2083 7.7749 10.0416C7.7749 8.84994 8.73323 7.8916 9.9249 7.8916C11.1166 7.8916 12.0749 8.85827 12.0749 10.0416C12.0666 11.2083 11.1499 12.1583 9.9999 12.1916Z" stroke="#6544C5" stroke-width="1.5" stroke-linecap="round" stroke-linejoin="round"/>
<path d="M7.5751 14.8168C6.4001 15.6001 6.4001 16.8835 7.5751 17.6668C8.90843 18.5585 11.0918 18.5585 12.4251 17.6668C13.6001 16.8835 13.6001 15.6001 12.4251 14.8168C11.1001 13.9335 8.90843 13.9335 7.5751 14.8168Z" stroke="#6544C5" stroke-width="1.5" stroke-linecap="round" stroke-linejoin="round"/>
</svg>
