<svg width="20" height="20" viewBox="0 0 20 20" fill="none" xmlns="http://www.w3.org/2000/svg">
<path fill-rule="evenodd" clip-rule="evenodd" d="M3 0C1.34315 0 0 1.34315 0 3V17C0 18.6569 1.34315 20 3 20H17C18.6569 20 20 18.6569 20 17V3C20 1.34315 18.6569 0 17 0H3ZM2.29289 9.29289C1.90237 9.68342 1.90237 10.3166 2.29289 10.7071L6.29289 14.7071C6.68342 15.0976 7.31658 15.0976 7.70711 14.7071C8.09763 14.3166 8.09763 13.6834 7.70711 13.2929L5.41421 11H17C17.5523 11 18 10.5523 18 10C18 9.44772 17.5523 9 17 9H5.41421L7.70711 6.70711C8.09763 6.31658 8.09763 5.68342 7.70711 5.29289C7.31658 4.90237 6.68342 4.90237 6.29289 5.29289L2.29289 9.29289Z" fill="black"/>
</svg>
