<svg width="14" height="14" viewBox="0 0 14 14" fill="none" xmlns="http://www.w3.org/2000/svg">
<g clip-path="url(#clip0_168_29310)">
<path fill-rule="evenodd" clip-rule="evenodd" d="M7 14C10.8598 14 14 10.8598 14 7C14 3.1402 10.8598 -3.37434e-07 7 0C3.1402 3.37434e-07 -3.37434e-07 3.1402 0 7C3.37434e-07 10.8598 3.1402 14 7 14ZM7.7 9.8C7.7 10.1866 7.3866 10.5 7 10.5C6.6134 10.5 6.3 10.1866 6.3 9.8V7C6.3 6.6134 6.6134 6.3 7 6.3C7.3866 6.3 7.7 6.6134 7.7 7V9.8ZM7 3.5C6.6134 3.5 6.3 3.8134 6.3 4.2C6.3 4.5866 6.6134 4.9 7 4.9C7.3866 4.9 7.7 4.5866 7.7 4.2C7.7 3.8134 7.3866 3.5 7 3.5Z" fill="#667085"/>
</g>
<defs>
<clipPath id="clip0_168_29310">
<rect width="14" height="14" fill="white"/>
</clipPath>
</defs>
</svg>
