<svg width="30" height="30" viewBox="0 0 30 30" fill="none" xmlns="http://www.w3.org/2000/svg">
<circle cx="15" cy="15" r="15" fill="#F9EFFF"/>
<path d="M14.9999 15.1373C13.3164 15.1373 11.9458 13.7667 11.9458 12.0832C11.9458 10.3997 13.3164 9.029 14.9999 9.029C16.6834 9.029 18.0541 10.3997 18.0541 12.0832C18.0541 13.7667 16.6834 15.1373 14.9999 15.1373ZM14.9999 9.304C13.4692 9.304 12.2208 10.5525 12.2208 12.0832C12.2208 13.6139 13.4692 14.8623 14.9999 14.8623C16.5306 14.8623 17.7791 13.6139 17.7791 12.0832C17.7791 10.5525 16.5306 9.304 14.9999 9.304Z" fill="#292D32" stroke="#404040" stroke-width="0.6"/>
<path d="M16.6455 16.8346L16.6455 16.8346L16.6472 16.8351C16.7189 16.8548 16.7616 16.9274 16.7408 17.003C16.7212 17.0744 16.6488 17.1172 16.5735 17.0967C16.0668 16.9547 15.5381 16.8875 15.0001 16.8875C12.3816 16.8875 10.1268 18.5951 10.1268 20.8333C10.1268 20.9068 10.0627 20.9708 9.98926 20.9708C9.91578 20.9708 9.85176 20.9068 9.85176 20.8333C9.85176 18.5581 12.1069 16.6125 15.0001 16.6125C15.5633 16.6125 16.1134 16.685 16.6455 16.8346Z" fill="#292D32" stroke="#404040" stroke-width="0.6"/>
<path d="M16.3902 19.7712L16.3903 19.7712L16.3859 19.7642C16.154 19.3932 16.029 18.9527 16.029 18.4998C16.029 17.7389 16.367 17.038 16.9542 16.5703L16.9544 16.5702C17.3912 16.2218 17.9436 16.029 18.4998 16.029C19.8625 16.029 20.9707 17.1372 20.9707 18.4998C20.9707 18.9524 20.8458 19.3936 20.6128 19.7716L20.6128 19.7716L20.6104 19.7756C20.4814 19.9923 20.3164 20.1881 20.1208 20.3529L20.1206 20.3527L20.1114 20.3611C19.6851 20.7514 19.1109 20.9707 18.4998 20.9707C17.6362 20.9707 16.8255 20.5123 16.3902 19.7712ZM18.4998 16.304C17.9983 16.304 17.5246 16.4741 17.129 16.7891C16.608 17.202 16.304 17.8312 16.304 18.4998C16.304 18.897 16.4114 19.2893 16.6216 19.6294C17.015 20.2919 17.737 20.6957 18.4998 20.6957C19.0324 20.6957 19.5459 20.5008 19.9394 20.1494C20.1127 20.0022 20.262 19.8268 20.373 19.6341C20.5884 19.2886 20.6957 18.8967 20.6957 18.4998C20.6957 17.29 19.7097 16.304 18.4998 16.304Z" fill="#292D32" stroke="#404040" stroke-width="0.6"/>
<path d="M17.9671 18.6827L18.1712 18.8868L18.383 18.6908L19.3163 17.8275L19.3163 17.8275L19.3173 17.8266C19.3693 17.778 19.4596 17.7795 19.5116 17.8353C19.5601 17.8872 19.5586 17.9772 19.5033 18.0293C19.5031 18.0294 19.503 18.0295 19.5029 18.0296L18.2657 19.1739C18.2285 19.205 18.1931 19.2147 18.1676 19.2147C18.132 19.2147 18.0988 19.2026 18.0706 19.1743L17.4931 18.5968C17.4411 18.5448 17.4411 18.4547 17.4931 18.4027C17.5451 18.3507 17.6351 18.3507 17.6871 18.4027C17.6871 18.4027 17.6871 18.4027 17.6871 18.4027L17.9671 18.6827Z" fill="#292D32" stroke="#404040" stroke-width="0.6"/>
</svg>
