<svg width="31" height="30" viewBox="0 0 31 30" fill="none" xmlns="http://www.w3.org/2000/svg">
<circle cx="15.3433" cy="15" r="15" fill="#ECFFF2"/>
<path d="M14.6848 16.1468C13.7072 16.1468 12.9082 15.3478 12.9082 14.3701C12.9082 13.3925 13.7072 12.5935 14.6848 12.5935C15.6625 12.5935 16.4615 13.3925 16.4615 14.3701C16.4615 15.3478 15.6625 16.1468 14.6848 16.1468ZM14.6848 12.8743C13.8609 12.8743 13.1832 13.5443 13.1832 14.376C13.1832 15.2066 13.8541 15.8776 14.6848 15.8776C15.5155 15.8776 16.1865 15.2066 16.1865 14.376C16.1865 13.5453 15.5155 12.8743 14.6848 12.8743Z" fill="#292D32" stroke="#404040" stroke-width="0.6"/>
<path d="M17.7125 19.9209C17.639 19.9209 17.575 19.8569 17.575 19.7834C17.575 18.4338 16.2077 17.4534 14.685 17.4534C13.1623 17.4534 11.795 18.4338 11.795 19.7834C11.795 19.8569 11.731 19.9209 11.6575 19.9209C11.584 19.9209 11.52 19.8569 11.52 19.7834C11.52 18.3978 12.886 17.1784 14.685 17.1784C16.4843 17.1784 17.85 18.3923 17.85 19.7834C17.85 19.8569 17.786 19.9209 17.7125 19.9209Z" fill="#292D32" stroke="#404040" stroke-width="0.6"/>
<path d="M16.9196 10.0557L16.9205 10.0561C16.9838 10.0824 17.0178 10.1531 16.9958 10.2225C16.9206 10.4488 16.8876 10.6849 16.8876 10.9167C16.8876 11.313 16.9946 11.7047 17.204 12.0443C17.3142 12.236 17.4569 12.4052 17.618 12.5465C18.2045 13.0776 19.0713 13.2499 19.7675 13.0018L19.7675 13.0018L19.7729 12.9998C19.8313 12.9777 19.9087 13.007 19.9371 13.0769L19.937 13.0769L19.939 13.0816C20.2379 13.7846 20.3876 14.5321 20.3876 15.2975C20.3876 18.4216 17.8388 20.9708 14.7084 20.9708C11.5783 20.9708 9.02925 18.4218 9.02925 15.2917C9.02925 12.1615 11.5783 9.6125 14.7084 9.6125C15.4797 9.6125 16.2218 9.76217 16.9196 10.0557ZM19.8292 13.5527L19.7481 13.3067L19.4928 13.3511C18.7789 13.4753 17.992 13.2514 17.4426 12.7487L17.4427 12.7486L17.4353 12.7422C17.2566 12.5891 17.0972 12.399 16.974 12.1884L16.974 12.1884L16.9711 12.1836C16.7435 11.8112 16.6184 11.3696 16.6184 10.9167C16.6184 10.7742 16.629 10.6419 16.6539 10.5125L16.7032 10.2561L16.456 10.1719C15.8924 9.97989 15.3054 9.8875 14.7084 9.8875C11.7313 9.8875 9.30425 12.3083 9.30425 15.2917C9.30425 18.2751 11.7313 20.6958 14.7084 20.6958C17.6855 20.6958 20.1126 18.2751 20.1126 15.2917C20.1126 14.6982 20.0137 14.1124 19.8292 13.5527Z" fill="#292D32" stroke="#404040" stroke-width="0.6"/>
<path d="M17.4358 12.7481L17.4359 12.748L17.4294 12.7424C17.2507 12.5892 17.0913 12.3992 16.9681 12.1886L16.9681 12.1886L16.9652 12.1837C16.7376 11.8114 16.6125 11.3698 16.6125 10.9168C16.6125 10.651 16.6542 10.3914 16.7371 10.1425L16.7371 10.1425L16.7379 10.14C16.852 9.78743 17.049 9.46127 17.3121 9.19813L17.3121 9.19814L17.3144 9.19579C17.7839 8.71587 18.4129 8.446 19.0892 8.446C19.7977 8.446 20.4677 8.74832 20.9231 9.26586L20.9231 9.26587L20.925 9.26794C21.3317 9.7216 21.56 10.304 21.56 10.9168C21.56 11.1126 21.5342 11.3071 21.4834 11.4899L21.4813 11.4974L21.4796 11.5051C21.4287 11.7344 21.331 11.9761 21.1983 12.1853L21.1982 12.1853L21.1935 12.1932C20.8927 12.7014 20.4158 13.0796 19.8566 13.2557L19.8485 13.2582L19.8406 13.2612C19.6177 13.3454 19.3628 13.3877 19.0833 13.3877C18.4707 13.3877 17.889 13.1595 17.4358 12.7481ZM19.0833 8.721C18.4842 8.721 17.9221 8.95719 17.5091 9.38353C17.2743 9.62496 17.1037 9.90345 17.0015 10.2229C16.9263 10.4491 16.8933 10.6852 16.8933 10.9168C16.8933 11.3132 17.0003 11.7049 17.2097 12.0445C17.32 12.2362 17.4627 12.4053 17.6237 12.5466C18.2088 13.0765 19.0727 13.2492 19.768 13.0038C20.2794 12.8409 20.6976 12.503 20.9671 12.0528C21.0892 11.8555 21.1704 11.646 21.2179 11.4381C21.265 11.2613 21.285 11.0909 21.285 10.9168C21.285 10.375 21.0819 9.85513 20.7189 9.4513C20.3049 8.98359 19.7094 8.721 19.0833 8.721Z" fill="#292D32" stroke="#404040" stroke-width="0.6"/>
<path d="M19.9524 11.3423H18.2083C17.9691 11.3423 17.7708 11.144 17.7708 10.9048C17.7708 10.6656 17.9691 10.4673 18.2083 10.4673H19.9524C20.1916 10.4673 20.3899 10.6656 20.3899 10.9048C20.3899 11.144 20.1974 11.3423 19.9524 11.3423Z" fill="#292D32"/>
<path d="M19.0835 12.2349C18.8443 12.2349 18.646 12.0366 18.646 11.7974V10.0532C18.646 9.81406 18.8443 9.61572 19.0835 9.61572C19.3227 9.61572 19.521 9.81406 19.521 10.0532V11.7974C19.521 12.0424 19.3227 12.2349 19.0835 12.2349Z" fill="#292D32"/>
</svg>
