<svg width="30" height="30" viewBox="0 0 30 30" fill="none" xmlns="http://www.w3.org/2000/svg">
<circle cx="15" cy="15" r="15" fill="#E8F5FF"/>
<path d="M14.2717 17.8354V19.0196C14.2717 20.023 13.3383 20.8338 12.1892 20.8338C11.04 20.8338 10.1008 20.023 10.1008 19.0196V17.8354C10.1008 18.8388 11.0342 19.5505 12.1892 19.5505C13.3383 19.5505 14.2717 18.8329 14.2717 17.8354Z" stroke="#404040" stroke-width="0.9" stroke-linecap="round" stroke-linejoin="round"/>
<path d="M14.2709 16.2307C14.2709 16.5223 14.1892 16.7907 14.0492 17.024C13.7051 17.5898 12.9992 17.9457 12.1825 17.9457C11.3659 17.9457 10.66 17.584 10.3159 17.024C10.1759 16.7907 10.0942 16.5223 10.0942 16.2307C10.0942 15.729 10.3276 15.2798 10.7009 14.9532C11.0801 14.6207 11.5992 14.4224 12.1767 14.4224C12.7542 14.4224 13.2734 14.6265 13.6526 14.9532C14.0376 15.274 14.2709 15.729 14.2709 16.2307Z" stroke="#404040" stroke-width="0.9" stroke-linecap="round" stroke-linejoin="round"/>
<path d="M14.2717 16.2307V17.8348C14.2717 18.8382 13.3383 19.5498 12.1892 19.5498C11.04 19.5498 10.1008 18.8323 10.1008 17.8348V16.2307C10.1008 15.2273 11.0342 14.4165 12.1892 14.4165C12.7667 14.4165 13.2859 14.6207 13.665 14.9473C14.0384 15.274 14.2717 15.729 14.2717 16.2307Z" stroke="#404040" stroke-width="0.9" stroke-linecap="round" stroke-linejoin="round"/>
<path d="M20.8333 14.3992V15.6009C20.8333 15.9217 20.5766 16.1842 20.25 16.1959H19.1066C18.4766 16.1959 17.8991 15.735 17.8466 15.105C17.8116 14.7375 17.9516 14.3934 18.1966 14.1542C18.4125 13.9325 18.71 13.8042 19.0366 13.8042H20.25C20.5766 13.8159 20.8333 14.0783 20.8333 14.3992Z" stroke="#404040" stroke-width="0.9" stroke-linecap="round" stroke-linejoin="round"/>
<path d="M9.1665 14.1248V12.9582C9.1665 11.3715 10.1232 10.2632 11.6107 10.0765C11.7623 10.0532 11.9198 10.0415 12.0832 10.0415H17.3332C17.4848 10.0415 17.6307 10.0473 17.7707 10.0707C19.2757 10.2457 20.2498 11.3598 20.2498 12.9582V13.804H19.0365C18.7098 13.804 18.4123 13.9323 18.1965 14.154C17.9515 14.3932 17.8115 14.7373 17.8465 15.1048C17.899 15.7348 18.4765 16.1957 19.1065 16.1957H20.2498V17.0415C20.2498 18.7915 19.0832 19.9582 17.3332 19.9582H15.8748" stroke="#262329" stroke-width="0.9" stroke-linecap="round" stroke-linejoin="round"/>
</svg>
