<svg width="30" height="30" viewBox="0 0 30 30" fill="none" xmlns="http://www.w3.org/2000/svg">
<circle cx="15" cy="15" r="15" fill="#FFF4E8"/>
<path d="M18.4999 12.1765C18.4649 12.1707 18.424 12.1707 18.389 12.1765C17.584 12.1473 16.9424 11.4882 16.9424 10.6715C16.9424 9.83734 17.6132 9.1665 18.4474 9.1665C19.2815 9.1665 19.9524 9.84317 19.9524 10.6715C19.9465 11.4882 19.3049 12.1473 18.4999 12.1765Z" stroke="#404040" stroke-width="0.9" stroke-linecap="round" stroke-linejoin="round"/>
<path d="M17.8993 16.4233C18.6985 16.5574 19.5793 16.4174 20.1977 16.0033C21.0202 15.4549 21.0202 14.5566 20.1977 14.0083C19.5735 13.5941 18.681 13.4541 17.8818 13.5941" stroke="#404040" stroke-width="0.9" stroke-linecap="round" stroke-linejoin="round"/>
<path d="M11.4823 12.1765C11.5173 12.1707 11.5581 12.1707 11.5931 12.1765C12.3981 12.1473 13.0398 11.4882 13.0398 10.6715C13.0398 9.83734 12.369 9.1665 11.5348 9.1665C10.7006 9.1665 10.0298 9.84317 10.0298 10.6715C10.0356 11.4882 10.6773 12.1473 11.4823 12.1765Z" stroke="#404040" stroke-width="0.9" stroke-linecap="round" stroke-linejoin="round"/>
<path d="M12.0832 16.4233C11.284 16.5574 10.4032 16.4174 9.78484 16.0033C8.96234 15.4549 8.96234 14.5566 9.78484 14.0083C10.409 13.5941 11.3015 13.4541 12.1007 13.5941" stroke="#404040" stroke-width="0.9" stroke-linecap="round" stroke-linejoin="round"/>
<path d="M14.9999 16.5344C14.9649 16.5286 14.924 16.5286 14.889 16.5344C14.084 16.5052 13.4424 15.8461 13.4424 15.0294C13.4424 14.1952 14.1132 13.5244 14.9474 13.5244C15.7815 13.5244 16.4524 14.2011 16.4524 15.0294C16.4465 15.8461 15.8049 16.5111 14.9999 16.5344Z" stroke="#292D32" stroke-width="0.9" stroke-linecap="round" stroke-linejoin="round"/>
<path d="M13.3024 18.3715C12.4799 18.9198 12.4799 19.8181 13.3024 20.3665C14.2358 20.9906 15.7641 20.9906 16.6974 20.3665C17.5199 19.8181 17.5199 18.9198 16.6974 18.3715C15.7699 17.7531 14.2358 17.7531 13.3024 18.3715Z" stroke="#292D32" stroke-width="0.9" stroke-linecap="round" stroke-linejoin="round"/>
</svg>
