<svg width="20" height="20" viewBox="0 0 20 20" fill="none" xmlns="http://www.w3.org/2000/svg">
<path d="M3.55005 9.18353V13.3252C3.55005 14.8419 3.55005 14.8419 4.98338 15.8085L8.92505 18.0835C9.51672 18.4252 10.4834 18.4252 11.075 18.0835L15.0167 15.8085C16.45 14.8419 16.45 14.8419 16.45 13.3252V9.18353C16.45 7.66686 16.45 7.66686 15.0167 6.7002L11.075 4.4252C10.4834 4.08353 9.51672 4.08353 8.92505 4.4252L4.98338 6.7002C3.55005 7.66686 3.55005 7.66686 3.55005 9.18353Z" stroke="#262329" stroke-width="1.5" stroke-linecap="round" stroke-linejoin="round"/>
<path d="M14.5833 6.35866V4.16699C14.5833 2.50033 13.75 1.66699 12.0833 1.66699H7.91663C6.24996 1.66699 5.41663 2.50033 5.41663 4.16699V6.30033" stroke="#262329" stroke-width="1.5" stroke-linecap="round" stroke-linejoin="round"/>
<path d="M10.525 9.15879L11 9.90046C11.075 10.0171 11.2416 10.1338 11.3666 10.1671L12.2166 10.3838C12.7416 10.5171 12.8833 10.9671 12.5416 11.3838L11.9833 12.0588C11.9 12.1671 11.8333 12.3588 11.8416 12.4921L11.8916 13.3671C11.925 13.9088 11.5416 14.1838 11.0416 13.9838L10.225 13.6588C10.1 13.6088 9.89165 13.6088 9.76665 13.6588L8.94998 13.9838C8.44998 14.1838 8.06665 13.9005 8.09998 13.3671L8.14998 12.4921C8.15831 12.3588 8.09165 12.1588 8.00831 12.0588L7.44998 11.3838C7.10831 10.9671 7.24998 10.5171 7.77498 10.3838L8.62498 10.1671C8.75831 10.1338 8.92498 10.0088 8.99165 9.90046L9.46665 9.15879C9.76665 8.70879 10.2333 8.70879 10.525 9.15879Z" stroke="#262329" stroke-width="1.5" stroke-linecap="round" stroke-linejoin="round"/>
</svg>
