<svg width="48" height="48" viewBox="0 0 48 48" fill="none" xmlns="http://www.w3.org/2000/svg">
<path d="M41 20.38H35.22C30.48 20.38 26.62 16.52 26.62 11.78V6C26.62 4.9 25.72 4 24.62 4H16.14C9.98 4 5 8 5 15.14V32.86C5 40 9.98 44 16.14 44H31.86C38.02 44 43 40 43 32.86V22.38C43 21.28 42.1 20.38 41 20.38ZM23.06 27.06C22.76 27.36 22.38 27.5 22 27.5C21.62 27.5 21.24 27.36 20.94 27.06L19.5 25.62V34C19.5 34.82 18.82 35.5 18 35.5C17.18 35.5 16.5 34.82 16.5 34V25.62L15.06 27.06C14.48 27.64 13.52 27.64 12.94 27.06C12.36 26.48 12.36 25.52 12.94 24.94L16.94 20.94C17.08 20.82 17.22 20.72 17.38 20.64C17.42 20.62 17.48 20.6 17.52 20.58C17.64 20.54 17.76 20.52 17.9 20.5C17.96 20.5 18 20.5 18.06 20.5C18.22 20.5 18.38 20.54 18.54 20.6C18.56 20.6 18.56 20.6 18.58 20.6C18.74 20.66 18.9 20.78 19.02 20.9C19.04 20.92 19.06 20.92 19.06 20.94L23.06 24.94C23.64 25.52 23.64 26.48 23.06 27.06Z" fill="#B2A1E2"/>
<path d="M34.8601 17.62C36.7601 17.64 39.4001 17.64 41.6601 17.64C42.8001 17.64 43.4001 16.3 42.6001 15.5C39.7201 12.6 34.5601 7.37999 31.6001 4.41999C30.7801 3.59999 29.3601 4.15999 29.3601 5.29999V12.28C29.3601 15.2 31.8401 17.62 34.8601 17.62Z" fill="#B2A1E2"/>
</svg>
