<svg width="28" height="28" viewBox="0 0 28 28" fill="none" xmlns="http://www.w3.org/2000/svg">
<path d="M19.4915 15.9918L14.8249 20.6585C14.3693 21.1141 13.6306 21.1141 13.175 20.6585L8.50829 15.9918C8.05268 15.5362 8.05268 14.7975 8.50829 14.3419C8.96391 13.8863 9.7026 13.8863 10.1582 14.3419L12.8333 17.0169V3.50016C12.8333 2.85583 13.3556 2.3335 13.9999 2.3335C14.6442 2.3335 15.1666 2.85583 15.1666 3.50016V17.0169L17.8416 14.3419C18.2972 13.8863 19.0359 13.8863 19.4915 14.3419C19.9472 14.7975 19.9472 15.5362 19.4915 15.9918Z" fill="#475367"/>
<path d="M4.66659 20.4168C4.66659 19.7725 4.14425 19.2502 3.49992 19.2502C2.85559 19.2502 2.33325 19.7725 2.33325 20.4168V22.1668C2.33325 24.7442 4.42259 26.8335 6.99992 26.8335H20.9999C23.5772 26.8335 25.6666 24.7442 25.6666 22.1668V20.4168C25.6666 19.7725 25.1442 19.2502 24.4999 19.2502C23.8556 19.2502 23.3333 19.7725 23.3333 20.4168V22.1668C23.3333 23.4555 22.2886 24.5002 20.9999 24.5002H6.99992C5.71125 24.5002 4.66659 23.4555 4.66659 22.1668V20.4168Z" fill="#475367"/>
</svg>
