<svg width="46" height="46" viewBox="0 0 46 46" fill="none" xmlns="http://www.w3.org/2000/svg">
<rect x="3" y="3" width="40" height="40" rx="20" fill="#FEE4E2"/>
<rect x="3" y="3" width="40" height="40" rx="20" stroke="#FEF3F2" stroke-width="6"/>
<path d="M30.0833 21.492H27.675C25.7 21.492 24.0917 19.8837 24.0917 17.9087V15.5003C24.0917 15.042 23.7167 14.667 23.2583 14.667H19.725C17.1583 14.667 15.0833 16.3337 15.0833 19.3087V26.692C15.0833 29.667 17.1583 31.3337 19.725 31.3337H26.275C28.8417 31.3337 30.9167 29.667 30.9167 26.692V22.3253C30.9167 21.867 30.5417 21.492 30.0833 21.492ZM22.6083 24.2753C22.4833 24.4003 22.325 24.4587 22.1667 24.4587C22.0083 24.4587 21.85 24.4003 21.725 24.2753L21.125 23.6753V27.167C21.125 27.5087 20.8417 27.792 20.5 27.792C20.1583 27.792 19.875 27.5087 19.875 27.167V23.6753L19.275 24.2753C19.0333 24.517 18.6333 24.517 18.3917 24.2753C18.15 24.0337 18.15 23.6337 18.3917 23.392L20.0583 21.7253C20.1167 21.6753 20.175 21.6337 20.2417 21.6003C20.2583 21.592 20.2833 21.5837 20.3 21.5753C20.35 21.5587 20.4 21.5503 20.4583 21.542C20.4833 21.542 20.5 21.542 20.525 21.542C20.5917 21.542 20.6583 21.5587 20.725 21.5837C20.7333 21.5837 20.7333 21.5837 20.7417 21.5837C20.8083 21.6087 20.875 21.6587 20.925 21.7087C20.9333 21.717 20.9417 21.717 20.9417 21.7253L22.6083 23.392C22.85 23.6337 22.85 24.0337 22.6083 24.2753Z" fill="#D92D20"/>
<path d="M27.525 20.3421C28.3167 20.3504 29.4167 20.3504 30.3583 20.3504C30.8333 20.3504 31.0833 19.7921 30.75 19.4587C29.55 18.2504 27.4 16.0754 26.1667 14.8421C25.825 14.5004 25.2333 14.7337 25.2333 15.2087V18.1171C25.2333 19.3337 26.2667 20.3421 27.525 20.3421Z" fill="#D92D20"/>
</svg>
