<svg width="373" height="52" viewBox="0 0 373 52" fill="none" xmlns="http://www.w3.org/2000/svg">
<rect width="373" height="52" rx="8" fill="white"/>
<rect x="0.5" y="0.5" width="372" height="51" rx="7.5" stroke="black" stroke-opacity="0.2"/>
<g clip-path="url(#clip0_61_319)">
<path d="M103.361 14.7894C100.963 15.6213 98.8946 17.2002 97.4603 19.2943C96.026 21.3883 95.301 23.8871 95.3919 26.4237C95.4827 28.9602 96.3846 31.4008 97.965 33.3869C99.5454 35.373 101.721 36.7999 104.172 37.4581C106.16 37.9709 108.242 37.9934 110.24 37.5237C112.05 37.1172 113.723 36.2476 115.096 35C116.525 33.6619 117.562 31.9596 118.096 30.0762C118.677 28.0281 118.78 25.8742 118.398 23.78H107.238V28.4094H113.701C113.572 29.1477 113.295 29.8524 112.887 30.4813C112.479 31.1102 111.949 31.6503 111.327 32.0694C110.538 32.5914 109.649 32.9427 108.716 33.1006C107.78 33.2746 106.82 33.2746 105.884 33.1006C104.936 32.9045 104.039 32.5131 103.25 31.9512C101.983 31.0542 101.031 29.7799 100.531 28.31C100.023 26.8126 100.023 25.1893 100.531 23.6919C100.887 22.6423 101.475 21.6866 102.252 20.8962C103.142 19.9751 104.267 19.3167 105.506 18.9933C106.745 18.6698 108.048 18.6937 109.274 19.0625C110.232 19.3565 111.108 19.8701 111.832 20.5625C112.561 19.8375 113.288 19.1106 114.014 18.3819C114.389 17.99 114.798 17.6169 115.167 17.2156C114.062 16.1871 112.765 15.3869 111.35 14.8606C108.773 13.925 105.954 13.8998 103.361 14.7894Z" fill="white"/>
<path d="M103.361 14.7894C105.954 13.8992 108.773 13.9237 111.35 14.8588C112.765 15.3886 114.062 16.1927 115.166 17.225C114.791 17.6263 114.395 18.0013 114.013 18.3913C113.285 19.1175 112.558 19.8413 111.832 20.5625C111.108 19.8701 110.232 19.3565 109.274 19.0625C108.049 18.6925 106.745 18.6671 105.506 18.9893C104.267 19.3114 103.141 19.9686 102.251 20.8888C101.474 21.6791 100.885 22.6348 100.529 23.6844L96.6426 20.675C98.0338 17.9161 100.443 15.8057 103.361 14.7894Z" fill="#E33629"/>
<path d="M95.6114 23.6563C95.8203 22.6209 96.1672 21.6182 96.6427 20.675L100.53 23.6919C100.021 25.1893 100.021 26.8126 100.53 28.31C99.2345 29.31 97.9389 30.315 96.6427 31.325C95.4523 28.9556 95.0893 26.2559 95.6114 23.6563Z" fill="#F8BD00"/>
<path d="M107.238 23.7781H118.398C118.78 25.8724 118.677 28.0263 118.096 30.0744C117.562 31.9578 116.525 33.66 115.096 34.9981C113.842 34.0194 112.582 33.0481 111.328 32.0694C111.949 31.6499 112.48 31.1092 112.888 30.4796C113.296 29.8501 113.573 29.1446 113.701 28.4056H107.238C107.236 26.8644 107.238 25.3212 107.238 23.7781Z" fill="#587DBD"/>
<path d="M96.6406 31.325C97.9369 30.325 99.2325 29.32 100.527 28.31C101.029 29.7804 101.981 31.0548 103.25 31.9512C104.041 32.5105 104.94 32.8987 105.89 33.0912C106.826 33.2652 107.786 33.2652 108.721 33.0912C109.654 32.9333 110.544 32.5821 111.333 32.06C112.588 33.0387 113.847 34.01 115.102 34.9887C113.729 36.237 112.056 37.1073 110.246 37.5144C108.248 37.9841 106.165 37.9616 104.178 37.4487C102.606 37.0291 101.138 36.2892 99.8656 35.2756C98.5187 34.2063 97.4187 32.8587 96.6406 31.325Z" fill="#319F43"/>
</g>
<path d="M137.588 23.608C137.588 21.872 138.988 20.696 141.074 20.696C143.006 20.696 144.252 21.774 144.364 23.524H142.978C142.908 22.516 142.194 21.928 141.06 21.928C139.786 21.928 138.96 22.572 138.96 23.566C138.96 24.378 139.422 24.868 140.374 25.092L142.04 25.484C143.692 25.862 144.532 26.758 144.532 28.186C144.532 30.006 143.118 31.168 140.962 31.168C138.904 31.168 137.532 30.09 137.448 28.354H138.848C138.876 29.32 139.688 29.936 140.962 29.936C142.306 29.936 143.16 29.306 143.16 28.298C143.16 27.5 142.726 26.996 141.76 26.772L140.094 26.394C138.442 26.016 137.588 25.064 137.588 23.608ZM146.676 22.53C146.2 22.53 145.808 22.138 145.808 21.662C145.808 21.172 146.2 20.794 146.676 20.794C147.152 20.794 147.544 21.172 147.544 21.662C147.544 22.138 147.152 22.53 146.676 22.53ZM146.032 31V24.154H147.348V31H146.032ZM148.825 27.402C148.825 25.47 150.071 23.958 152.059 23.958C153.165 23.958 154.019 24.462 154.453 25.316L154.551 24.154H155.727V30.72C155.727 32.876 154.397 34.248 152.297 34.248C150.435 34.248 149.161 33.198 148.909 31.462H150.225C150.393 32.47 151.149 33.058 152.297 33.058C153.585 33.058 154.425 32.218 154.425 30.916V29.544C153.977 30.342 153.081 30.818 152.003 30.818C150.057 30.818 148.825 29.32 148.825 27.402ZM150.141 27.374C150.141 28.662 150.939 29.67 152.227 29.67C153.557 29.67 154.369 28.718 154.369 27.374C154.369 26.058 153.585 25.106 152.241 25.106C150.925 25.106 150.141 26.114 150.141 27.374ZM158.942 31H157.626V24.154H158.816L158.956 25.204C159.39 24.42 160.258 23.958 161.224 23.958C163.03 23.958 163.856 25.064 163.856 26.814V31H162.54V27.108C162.54 25.722 161.896 25.162 160.888 25.162C159.656 25.162 158.942 26.044 158.942 27.374V31ZM169.661 27.402V20.878H171.033V27.318C171.033 28.942 171.929 29.838 173.539 29.838C175.135 29.838 176.017 28.928 176.017 27.318V20.878H177.403V27.402C177.403 29.726 175.919 31.168 173.539 31.168C171.145 31.168 169.661 29.74 169.661 27.402ZM179.46 34.066V24.154H180.65L180.748 25.386C181.21 24.448 182.134 23.958 183.226 23.958C185.186 23.958 186.404 25.428 186.404 27.528C186.404 29.614 185.256 31.182 183.226 31.182C182.134 31.182 181.224 30.72 180.776 29.88V34.066H179.46ZM180.79 27.584C180.79 28.984 181.602 29.992 182.946 29.992C184.29 29.992 185.088 28.984 185.088 27.584C185.088 26.17 184.29 25.162 182.946 25.162C181.602 25.162 180.79 26.156 180.79 27.584ZM191.836 27.402V20.878H193.208V27.318C193.208 28.942 194.104 29.838 195.714 29.838C197.31 29.838 198.192 28.928 198.192 27.318V20.878H199.578V27.402C199.578 29.726 198.094 31.168 195.714 31.168C193.32 31.168 191.836 29.74 191.836 27.402ZM201.021 29.012H202.281C202.281 29.712 202.813 30.132 203.681 30.132C204.605 30.132 205.137 29.754 205.137 29.124C205.137 28.662 204.913 28.382 204.199 28.2L202.995 27.92C201.777 27.626 201.203 27.024 201.203 26.016C201.203 24.756 202.267 23.958 203.779 23.958C205.277 23.958 206.257 24.798 206.285 26.1H205.025C204.997 25.414 204.535 24.98 203.737 24.98C202.911 24.98 202.449 25.344 202.449 25.974C202.449 26.436 202.785 26.744 203.457 26.912L204.661 27.206C205.823 27.486 206.397 28.018 206.397 29.04C206.397 30.342 205.277 31.168 203.653 31.168C202.043 31.168 201.021 30.314 201.021 29.012ZM208.5 22.53C208.024 22.53 207.632 22.138 207.632 21.662C207.632 21.172 208.024 20.794 208.5 20.794C208.976 20.794 209.368 21.172 209.368 21.662C209.368 22.138 208.976 22.53 208.5 22.53ZM207.856 31V24.154H209.172V31H207.856ZM212.399 31H211.083V24.154H212.273L212.413 25.204C212.847 24.42 213.715 23.958 214.681 23.958C216.487 23.958 217.313 25.064 217.313 26.814V31H215.997V27.108C215.997 25.722 215.353 25.162 214.345 25.162C213.113 25.162 212.399 26.044 212.399 27.374V31ZM218.702 27.402C218.702 25.47 219.948 23.958 221.936 23.958C223.042 23.958 223.896 24.462 224.33 25.316L224.428 24.154H225.604V30.72C225.604 32.876 224.274 34.248 222.174 34.248C220.312 34.248 219.038 33.198 218.786 31.462H220.102C220.27 32.47 221.026 33.058 222.174 33.058C223.462 33.058 224.302 32.218 224.302 30.916V29.544C223.854 30.342 222.958 30.818 221.88 30.818C219.934 30.818 218.702 29.32 218.702 27.402ZM220.018 27.374C220.018 28.662 220.816 29.67 222.104 29.67C223.434 29.67 224.246 28.718 224.246 27.374C224.246 26.058 223.462 25.106 222.118 25.106C220.802 25.106 220.018 26.114 220.018 27.374ZM235.895 21.998C233.711 21.998 232.395 23.608 232.395 26.002C232.395 28.452 233.823 29.866 235.909 29.866C237.631 29.866 239.017 28.984 239.017 26.94V26.646H235.629V25.428H240.305V31.014H239.157L239.059 29.642C238.513 30.524 237.281 31.168 235.797 31.168C232.927 31.168 230.953 29.096 230.953 25.974C230.953 22.894 232.941 20.71 235.923 20.71C238.135 20.71 239.857 21.984 240.193 23.93H238.737C238.359 22.642 237.239 21.998 235.895 21.998ZM241.588 27.57C241.588 25.456 243.1 23.972 245.158 23.972C247.202 23.972 248.714 25.456 248.714 27.57C248.714 29.684 247.202 31.168 245.158 31.168C243.1 31.168 241.588 29.684 241.588 27.57ZM242.918 27.57C242.918 28.998 243.828 29.992 245.158 29.992C246.474 29.992 247.398 28.998 247.398 27.57C247.398 26.142 246.474 25.148 245.158 25.148C243.828 25.148 242.918 26.142 242.918 27.57ZM249.723 27.57C249.723 25.456 251.235 23.972 253.293 23.972C255.337 23.972 256.849 25.456 256.849 27.57C256.849 29.684 255.337 31.168 253.293 31.168C251.235 31.168 249.723 29.684 249.723 27.57ZM251.053 27.57C251.053 28.998 251.963 29.992 253.293 29.992C254.609 29.992 255.533 28.998 255.533 27.57C255.533 26.142 254.609 25.148 253.293 25.148C251.963 25.148 251.053 26.142 251.053 27.57ZM257.872 27.402C257.872 25.47 259.118 23.958 261.106 23.958C262.212 23.958 263.066 24.462 263.5 25.316L263.598 24.154H264.774V30.72C264.774 32.876 263.444 34.248 261.344 34.248C259.482 34.248 258.208 33.198 257.956 31.462H259.272C259.44 32.47 260.196 33.058 261.344 33.058C262.632 33.058 263.472 32.218 263.472 30.916V29.544C263.024 30.342 262.128 30.818 261.05 30.818C259.104 30.818 257.872 29.32 257.872 27.402ZM259.188 27.374C259.188 28.662 259.986 29.67 261.274 29.67C262.604 29.67 263.416 28.718 263.416 27.374C263.416 26.058 262.632 25.106 261.288 25.106C259.972 25.106 259.188 26.114 259.188 27.374ZM268.017 31H266.701V20.696H268.017V31ZM272.908 31.168C270.892 31.168 269.506 29.712 269.506 27.584C269.506 25.442 270.864 23.958 272.852 23.958C274.798 23.958 276.072 25.302 276.072 27.332V27.822L270.78 27.836C270.878 29.278 271.634 30.076 272.936 30.076C273.958 30.076 274.63 29.656 274.854 28.872H276.086C275.75 30.342 274.602 31.168 272.908 31.168ZM272.852 25.064C271.704 25.064 270.976 25.75 270.808 26.954H274.756C274.756 25.82 274.014 25.064 272.852 25.064Z" fill="black"/>
<defs>
<clipPath id="clip0_61_319">
<rect width="24" height="24" fill="white" transform="translate(95 14)"/>
</clipPath>
</defs>
</svg>
