<svg width="20" height="21" viewBox="0 0 20 21" fill="none" xmlns="http://www.w3.org/2000/svg">
<path d="M7.91659 1.9585C7.57021 1.9585 7.25994 2.17277 7.13727 2.49671L6.94594 3.00194C6.53579 2.96096 6.1579 2.92005 5.85199 2.8857C5.62331 2.86003 5.43533 2.83807 5.30475 2.82256L5.15413 2.80448L5.10298 2.79823C4.64623 2.74167 4.22947 3.06601 4.17291 3.52275C4.11635 3.9795 4.44076 4.39562 4.89751 4.45218L4.95317 4.45899L5.10815 4.47759C5.24177 4.49346 5.43333 4.51584 5.66602 4.54196C6.13099 4.59417 6.76207 4.66157 7.42419 4.72199C8.31734 4.80351 9.29636 4.87516 9.99992 4.87516C10.7035 4.87516 11.6825 4.80351 12.5757 4.72199C13.2378 4.66157 13.8689 4.59417 14.3338 4.54196C14.5665 4.51584 14.7581 4.49346 14.8917 4.47759L15.0467 4.45899L15.1022 4.45219C15.559 4.39563 15.8835 3.9795 15.8269 3.52275C15.7704 3.06601 15.3543 2.74159 14.8975 2.79814L14.8457 2.80448L14.6951 2.82256C14.5645 2.83807 14.3765 2.86003 14.1479 2.8857C13.842 2.92005 13.4641 2.96096 13.0539 3.00194L12.8626 2.49671C12.7399 2.17277 12.4296 1.9585 12.0833 1.9585H7.91659Z" fill="#98A2B3"/>
<path d="M9.16659 10.2918C9.16659 9.83159 8.79349 9.4585 8.33326 9.4585C7.87302 9.4585 7.49992 9.83159 7.49992 10.2918V14.4585C7.49992 14.9187 7.87302 15.2918 8.33326 15.2918C8.79349 15.2918 9.16659 14.9187 9.16659 14.4585V10.2918Z" fill="#98A2B3"/>
<path d="M11.6666 9.4585C12.1268 9.4585 12.4999 9.83159 12.4999 10.2918V14.4585C12.4999 14.9187 12.1268 15.2918 11.6666 15.2918C11.2064 15.2918 10.8333 14.9187 10.8333 14.4585V10.2918C10.8333 9.83159 11.2064 9.4585 11.6666 9.4585Z" fill="#98A2B3"/>
<path fill-rule="evenodd" clip-rule="evenodd" d="M15.758 7.20896C15.8335 6.15166 14.9219 5.30402 13.886 5.42374C12.826 5.54625 11.1902 5.7085 9.99992 5.7085C8.80964 5.7085 7.17387 5.54625 6.11385 5.42374C5.07791 5.30402 4.16636 6.15165 4.24188 7.20896L4.95583 17.2042C5.00995 17.9619 5.57431 18.6025 6.34879 18.719C7.1793 18.8438 8.70321 19.0433 10.0009 19.0418C11.2826 19.0403 12.8127 18.8417 13.6469 18.718C14.4227 18.6029 14.9899 17.9618 15.0442 17.2019L15.758 7.20896ZM14.0773 7.07939C14.0802 7.07906 14.0824 7.07925 14.0824 7.07925L14.0846 7.07976C14.0865 7.0804 14.0894 7.08192 14.0923 7.08464C14.0942 7.08644 14.0956 7.08864 14.0956 7.08864L14.0955 7.09022L13.3825 17.0723C12.557 17.1943 11.142 17.3738 9.99896 17.3752C8.8435 17.3765 7.43732 17.1967 6.61744 17.0739L5.90431 7.09022L5.90425 7.08864C5.90425 7.08864 5.90567 7.08644 5.90757 7.08464C5.91044 7.08192 5.91335 7.0804 5.9152 7.07976L5.9174 7.07925C5.9174 7.07925 5.91962 7.07906 5.92251 7.07939C6.98441 7.20211 8.70446 7.37516 9.99992 7.37516C11.2954 7.37516 13.0154 7.20211 14.0773 7.07939Z" fill="#98A2B3"/>
</svg>
