<svg width="56" height="57" viewBox="0 0 56 57" fill="none" xmlns="http://www.w3.org/2000/svg">
<circle cx="28" cy="28.5" r="28" fill="#F0F2F5"/>
<path d="M20.9999 25.5835C20.9999 22.0397 23.8728 19.1668 27.4166 19.1668C30.5558 19.1668 33.1706 21.4222 33.7248 24.4013C33.8025 24.819 34.1012 25.1615 34.5045 25.2953C36.8271 26.0656 38.4999 28.2557 38.4999 30.8335C38.4999 34.0552 35.8883 36.6668 32.6666 36.6668C32.0223 36.6668 31.4999 37.1892 31.4999 37.8335C31.4999 38.4778 32.0223 39.0002 32.6666 39.0002C37.1769 39.0002 40.8333 35.3438 40.8333 30.8335C40.8333 27.459 38.7872 24.565 35.8706 23.3197C34.8726 19.5845 31.467 16.8335 27.4166 16.8335C22.5841 16.8335 18.6666 20.751 18.6666 25.5835C18.6666 25.7005 18.6689 25.817 18.6735 25.933C16.5788 27.1415 15.1666 29.4048 15.1666 32.0002C15.1666 35.8662 18.3006 39.0002 22.1666 39.0002C22.8109 39.0002 23.3333 38.4778 23.3333 37.8335C23.3333 37.1892 22.8109 36.6668 22.1666 36.6668C19.5893 36.6668 17.4999 34.5775 17.4999 32.0002C17.4999 30.0666 18.6761 28.4051 20.3567 27.6971C20.843 27.4923 21.1313 26.9865 21.0597 26.4637C21.0203 26.1765 20.9999 25.8827 20.9999 25.5835Z" fill="#475367"/>
<path d="M27.2248 31.1282C27.6669 30.7353 28.333 30.7353 28.775 31.1282L30.525 32.6837C31.0066 33.1118 31.05 33.8492 30.6219 34.3308C30.2474 34.7521 29.6362 34.838 29.1666 34.5663V40.1668C29.1666 40.8112 28.6443 41.3335 27.9999 41.3335C27.3556 41.3335 26.8333 40.8112 26.8333 40.1668V34.5663C26.3637 34.838 25.7524 34.7521 25.378 34.3308C24.9499 33.8492 24.9933 33.1118 25.4748 32.6837L27.2248 31.1282Z" fill="#475367"/>
</svg>
