<svg width="20" height="32" viewBox="0 0 20 32" fill="none" xmlns="http://www.w3.org/2000/svg">
<path d="M12.7001 24.5583H12.5918C8.89176 24.5583 7.10843 23.1 6.80009 19.8333C6.76676 19.4917 7.01676 19.1833 7.36676 19.15C7.70009 19.1167 8.01676 19.375 8.05009 19.7167C8.29176 22.3333 9.52509 23.3083 12.6001 23.3083H12.7084C16.1001 23.3083 17.3001 22.1083 17.3001 18.7167V13.2833C17.3001 9.89167 16.1001 8.69167 12.7084 8.69167H12.6001C9.50843 8.69167 8.27509 9.68333 8.05009 12.35C8.00843 12.6917 7.71676 12.95 7.36676 12.9167C7.01676 12.8917 6.76676 12.5833 6.79176 12.2417C7.07509 8.925 8.86676 7.44167 12.5918 7.44167H12.7001C16.7918 7.44167 18.5418 9.19167 18.5418 13.2833V18.7167C18.5418 22.8083 16.7918 24.5583 12.7001 24.5583Z" fill="#475467"/>
<path d="M12.4999 16.625H3.0166C2.67493 16.625 2.3916 16.3417 2.3916 16C2.3916 15.6583 2.67493 15.375 3.0166 15.375H12.4999C12.8416 15.375 13.1249 15.6583 13.1249 16C13.1249 16.3417 12.8416 16.625 12.4999 16.625Z" fill="#475467"/>
<path d="M4.87503 19.4167C4.7167 19.4167 4.55837 19.3583 4.43337 19.2333L1.6417 16.4417C1.40003 16.2 1.40003 15.8 1.6417 15.5583L4.43337 12.7667C4.67503 12.525 5.07503 12.525 5.3167 12.7667C5.55837 13.0083 5.55837 13.4083 5.3167 13.65L2.9667 16L5.3167 18.35C5.55837 18.5917 5.55837 18.9917 5.3167 19.2333C5.20003 19.3583 5.03337 19.4167 4.87503 19.4167Z" fill="#475467"/>
</svg>
