<svg width="372" height="52" viewBox="0 0 372 52" fill="none" xmlns="http://www.w3.org/2000/svg">
<rect width="372" height="52" rx="8" fill="white"/>
<rect x="0.5" y="0.5" width="371" height="51" rx="7.5" stroke="black" stroke-opacity="0.2"/>
<g clip-path="url(#clip0_61_328)">
<path d="M94.4062 25.4062H83V14H94.4062V25.4062Z" fill="#F1511B"/>
<path d="M107 25.4062H95.594V14H107V25.4062Z" fill="#80CC28"/>
<path d="M94.4059 38.0002H83V26.594H94.4059V38.0002Z" fill="#00ADEF"/>
<path d="M107 38.0002H95.594V26.594H107V38.0002Z" fill="#FBBC09"/>
</g>
<path d="M123.588 23.608C123.588 21.872 124.988 20.696 127.074 20.696C129.006 20.696 130.252 21.774 130.364 23.524H128.978C128.908 22.516 128.194 21.928 127.06 21.928C125.786 21.928 124.96 22.572 124.96 23.566C124.96 24.378 125.422 24.868 126.374 25.092L128.04 25.484C129.692 25.862 130.532 26.758 130.532 28.186C130.532 30.006 129.118 31.168 126.962 31.168C124.904 31.168 123.532 30.09 123.448 28.354H124.848C124.876 29.32 125.688 29.936 126.962 29.936C128.306 29.936 129.16 29.306 129.16 28.298C129.16 27.5 128.726 26.996 127.76 26.772L126.094 26.394C124.442 26.016 123.588 25.064 123.588 23.608ZM132.676 22.53C132.2 22.53 131.808 22.138 131.808 21.662C131.808 21.172 132.2 20.794 132.676 20.794C133.152 20.794 133.544 21.172 133.544 21.662C133.544 22.138 133.152 22.53 132.676 22.53ZM132.032 31V24.154H133.348V31H132.032ZM134.825 27.402C134.825 25.47 136.071 23.958 138.059 23.958C139.165 23.958 140.019 24.462 140.453 25.316L140.551 24.154H141.727V30.72C141.727 32.876 140.397 34.248 138.297 34.248C136.435 34.248 135.161 33.198 134.909 31.462H136.225C136.393 32.47 137.149 33.058 138.297 33.058C139.585 33.058 140.425 32.218 140.425 30.916V29.544C139.977 30.342 139.081 30.818 138.003 30.818C136.057 30.818 134.825 29.32 134.825 27.402ZM136.141 27.374C136.141 28.662 136.939 29.67 138.227 29.67C139.557 29.67 140.369 28.718 140.369 27.374C140.369 26.058 139.585 25.106 138.241 25.106C136.925 25.106 136.141 26.114 136.141 27.374ZM144.942 31H143.626V24.154H144.816L144.956 25.204C145.39 24.42 146.258 23.958 147.224 23.958C149.03 23.958 149.856 25.064 149.856 26.814V31H148.54V27.108C148.54 25.722 147.896 25.162 146.888 25.162C145.656 25.162 144.942 26.044 144.942 27.374V31ZM155.661 27.402V20.878H157.033V27.318C157.033 28.942 157.929 29.838 159.539 29.838C161.135 29.838 162.017 28.928 162.017 27.318V20.878H163.403V27.402C163.403 29.726 161.919 31.168 159.539 31.168C157.145 31.168 155.661 29.74 155.661 27.402ZM165.46 34.066V24.154H166.65L166.748 25.386C167.21 24.448 168.134 23.958 169.226 23.958C171.186 23.958 172.404 25.428 172.404 27.528C172.404 29.614 171.256 31.182 169.226 31.182C168.134 31.182 167.224 30.72 166.776 29.88V34.066H165.46ZM166.79 27.584C166.79 28.984 167.602 29.992 168.946 29.992C170.29 29.992 171.088 28.984 171.088 27.584C171.088 26.17 170.29 25.162 168.946 25.162C167.602 25.162 166.79 26.156 166.79 27.584ZM177.836 27.402V20.878H179.208V27.318C179.208 28.942 180.104 29.838 181.714 29.838C183.31 29.838 184.192 28.928 184.192 27.318V20.878H185.578V27.402C185.578 29.726 184.094 31.168 181.714 31.168C179.32 31.168 177.836 29.74 177.836 27.402ZM187.021 29.012H188.281C188.281 29.712 188.813 30.132 189.681 30.132C190.605 30.132 191.137 29.754 191.137 29.124C191.137 28.662 190.913 28.382 190.199 28.2L188.995 27.92C187.777 27.626 187.203 27.024 187.203 26.016C187.203 24.756 188.267 23.958 189.779 23.958C191.277 23.958 192.257 24.798 192.285 26.1H191.025C190.997 25.414 190.535 24.98 189.737 24.98C188.911 24.98 188.449 25.344 188.449 25.974C188.449 26.436 188.785 26.744 189.457 26.912L190.661 27.206C191.823 27.486 192.397 28.018 192.397 29.04C192.397 30.342 191.277 31.168 189.653 31.168C188.043 31.168 187.021 30.314 187.021 29.012ZM194.5 22.53C194.024 22.53 193.632 22.138 193.632 21.662C193.632 21.172 194.024 20.794 194.5 20.794C194.976 20.794 195.368 21.172 195.368 21.662C195.368 22.138 194.976 22.53 194.5 22.53ZM193.856 31V24.154H195.172V31H193.856ZM198.399 31H197.083V24.154H198.273L198.413 25.204C198.847 24.42 199.715 23.958 200.681 23.958C202.487 23.958 203.313 25.064 203.313 26.814V31H201.997V27.108C201.997 25.722 201.353 25.162 200.345 25.162C199.113 25.162 198.399 26.044 198.399 27.374V31ZM204.702 27.402C204.702 25.47 205.948 23.958 207.936 23.958C209.042 23.958 209.896 24.462 210.33 25.316L210.428 24.154H211.604V30.72C211.604 32.876 210.274 34.248 208.174 34.248C206.312 34.248 205.038 33.198 204.786 31.462H206.102C206.27 32.47 207.026 33.058 208.174 33.058C209.462 33.058 210.302 32.218 210.302 30.916V29.544C209.854 30.342 208.958 30.818 207.88 30.818C205.934 30.818 204.702 29.32 204.702 27.402ZM206.018 27.374C206.018 28.662 206.816 29.67 208.104 29.67C209.434 29.67 210.246 28.718 210.246 27.374C210.246 26.058 209.462 25.106 208.118 25.106C206.802 25.106 206.018 26.114 206.018 27.374ZM218.899 31H217.555V20.878H218.899L222.385 29.39L225.871 20.878H227.243V31H225.899V26.996C225.899 25.106 225.913 24.42 225.983 23.706L223.029 31H221.741L218.801 23.734C218.871 24.224 218.899 25.26 218.899 26.674V31ZM230.02 22.53C229.544 22.53 229.152 22.138 229.152 21.662C229.152 21.172 229.544 20.794 230.02 20.794C230.496 20.794 230.888 21.172 230.888 21.662C230.888 22.138 230.496 22.53 230.02 22.53ZM229.376 31V24.154H230.692V31H229.376ZM232.154 27.584C232.154 25.442 233.512 23.958 235.514 23.958C237.236 23.958 238.44 24.938 238.678 26.464H237.362C237.138 25.596 236.438 25.134 235.556 25.134C234.31 25.134 233.456 26.086 233.456 27.57C233.456 29.04 234.254 29.992 235.5 29.992C236.438 29.992 237.138 29.502 237.376 28.69H238.692C238.426 30.174 237.152 31.168 235.5 31.168C233.484 31.168 232.154 29.74 232.154 27.584ZM244.001 24.098V25.302H243.413C242.167 25.302 241.397 26.058 241.397 27.374V31H240.081V24.168H241.313L241.397 25.204C241.677 24.49 242.363 24.014 243.301 24.014C243.539 24.014 243.735 24.042 244.001 24.098ZM244.541 27.57C244.541 25.456 246.053 23.972 248.111 23.972C250.155 23.972 251.667 25.456 251.667 27.57C251.667 29.684 250.155 31.168 248.111 31.168C246.053 31.168 244.541 29.684 244.541 27.57ZM245.871 27.57C245.871 28.998 246.781 29.992 248.111 29.992C249.427 29.992 250.351 28.998 250.351 27.57C250.351 26.142 249.427 25.148 248.111 25.148C246.781 25.148 245.871 26.142 245.871 27.57ZM252.564 29.012H253.824C253.824 29.712 254.356 30.132 255.224 30.132C256.148 30.132 256.68 29.754 256.68 29.124C256.68 28.662 256.456 28.382 255.742 28.2L254.538 27.92C253.32 27.626 252.746 27.024 252.746 26.016C252.746 24.756 253.81 23.958 255.322 23.958C256.82 23.958 257.8 24.798 257.828 26.1H256.568C256.54 25.414 256.078 24.98 255.28 24.98C254.454 24.98 253.992 25.344 253.992 25.974C253.992 26.436 254.328 26.744 255 26.912L256.204 27.206C257.366 27.486 257.94 28.018 257.94 29.04C257.94 30.342 256.82 31.168 255.196 31.168C253.586 31.168 252.564 30.314 252.564 29.012ZM258.951 27.57C258.951 25.456 260.463 23.972 262.521 23.972C264.565 23.972 266.077 25.456 266.077 27.57C266.077 29.684 264.565 31.168 262.521 31.168C260.463 31.168 258.951 29.684 258.951 27.57ZM260.281 27.57C260.281 28.998 261.191 29.992 262.521 29.992C263.837 29.992 264.761 28.998 264.761 27.57C264.761 26.142 263.837 25.148 262.521 25.148C261.191 25.148 260.281 26.142 260.281 27.57ZM266.765 24.154H267.773V23.062C267.773 21.382 268.683 20.696 269.873 20.696C270.125 20.696 270.433 20.71 270.685 20.752V21.886H270.097C269.299 21.886 269.089 22.32 269.089 23.062V24.154H272.295V22.012H273.611V24.154H274.955V25.26H273.611V31H272.295V25.26H269.089V31H267.773V25.26H266.765V24.154Z" fill="black"/>
<defs>
<clipPath id="clip0_61_328">
<rect width="24" height="24" fill="white" transform="translate(83 14)"/>
</clipPath>
</defs>
</svg>
