<svg width="46" height="46" viewBox="0 0 46 46" fill="none" xmlns="http://www.w3.org/2000/svg">
<rect x="3" y="3" width="40" height="40" rx="20" fill="#FEF0C7"/>
<rect x="3" y="3" width="40" height="40" rx="20" stroke="#FFFAEB" stroke-width="6"/>
<path d="M28.825 18.2083L23.875 15.35C23.0667 14.8833 22.0667 14.8833 21.25 15.35L16.3083 18.2083C15.5 18.675 15 19.5417 15 20.4833V26.1833C15 27.1167 15.5 27.9833 16.3083 28.4583L21.2583 31.3167C22.0667 31.7833 23.0667 31.7833 23.8833 31.3167L28.8333 28.4583C29.6417 27.9917 30.1417 27.125 30.1417 26.1833V20.4833C30.1333 19.5417 29.6333 18.6833 28.825 18.2083ZM21.9417 19.7917C21.9417 19.45 22.225 19.1667 22.5667 19.1667C22.9083 19.1667 23.1917 19.45 23.1917 19.7917V24.1667C23.1917 24.5083 22.9083 24.7917 22.5667 24.7917C22.225 24.7917 21.9417 24.5083 21.9417 24.1667V19.7917ZM23.3333 27.1917C23.2917 27.2917 23.2333 27.3833 23.1583 27.4667C23 27.625 22.7917 27.7083 22.5667 27.7083C22.4583 27.7083 22.35 27.6833 22.25 27.6417C22.1417 27.6 22.0583 27.5417 21.975 27.4667C21.9 27.3833 21.8417 27.2917 21.7917 27.1917C21.75 27.0917 21.7333 26.9833 21.7333 26.875C21.7333 26.6583 21.8167 26.4417 21.975 26.2833C22.0583 26.2083 22.1417 26.15 22.25 26.1083C22.5583 25.975 22.925 26.05 23.1583 26.2833C23.2333 26.3667 23.2917 26.45 23.3333 26.5583C23.375 26.6583 23.4 26.7667 23.4 26.875C23.4 26.9833 23.375 27.0917 23.3333 27.1917Z" fill="#DC6803"/>
</svg>
