<svg width="46" height="46" viewBox="0 0 46 46" fill="none" xmlns="http://www.w3.org/2000/svg">
<g clip-path="url(#clip0_620_5004)">
<path fill-rule="evenodd" clip-rule="evenodd" d="M5.92921 0.600098C5.04778 0.600098 4.33325 1.31463 4.33325 2.19605V43.8041C4.33325 44.6856 5.04778 45.4001 5.92921 45.4001H40.0706C40.9521 45.4001 41.6666 44.6856 41.6666 43.8041V2.19605C41.6666 2.19401 41.6666 2.19198 41.6666 2.18994V8.06676L34.1999 0.600098H5.92921Z" fill="#E4E7EC"/>
<path fill-rule="evenodd" clip-rule="evenodd" d="M34.2 0.600098V8.06676H41.6666L34.2 0.600098Z" fill="#98A2B3"/>
<rect x="2.46667" y="19.2666" width="41.0667" height="18.6667" rx="1.59595" fill="#6544C5"/>
<path d="M11.2916 33.2426V23.957H14.7737C15.487 23.957 16.0855 24.09 16.5692 24.356C17.0558 24.622 17.423 24.9878 17.6709 25.4532C17.9218 25.9157 18.0472 26.4416 18.0472 27.0311C18.0472 27.6265 17.9218 28.1555 17.6709 28.6179C17.42 29.0804 17.0498 29.4446 16.5601 29.7106C16.0704 29.9736 15.4674 30.1051 14.751 30.1051H12.4433V28.7222H14.5243C14.9415 28.7222 15.283 28.6497 15.549 28.5046C15.815 28.3595 16.0115 28.16 16.1384 27.9061C16.2684 27.6522 16.3334 27.3605 16.3334 27.0311C16.3334 26.7016 16.2684 26.4114 16.1384 26.1605C16.0115 25.9097 15.8135 25.7147 15.5445 25.5757C15.2785 25.4336 14.9354 25.3626 14.5153 25.3626H12.9737V33.2426H11.2916Z" fill="white"/>
<path d="M22.6549 33.2426H19.5083V23.957H22.7183C23.6402 23.957 24.4322 24.1429 25.0941 24.5147C25.7591 24.8835 26.2699 25.4139 26.6266 26.1061C26.9833 26.7983 27.1616 27.6265 27.1616 28.5907C27.1616 29.558 26.9818 30.3892 26.6221 31.0844C26.2654 31.7796 25.75 32.3131 25.076 32.6849C24.405 33.0567 23.5979 33.2426 22.6549 33.2426ZM21.1904 31.7872H22.5732C23.2201 31.7872 23.7596 31.6693 24.1919 31.4335C24.6241 31.1947 24.949 30.8396 25.1667 30.368C25.3843 29.8935 25.4931 29.3011 25.4931 28.5907C25.4931 27.8804 25.3843 27.291 25.1667 26.8225C24.949 26.351 24.6271 25.9988 24.2009 25.7661C23.7778 25.5303 23.2518 25.4124 22.6231 25.4124H21.1904V31.7872Z" fill="white"/>
<path d="M28.7598 33.2426V23.957H34.7084V25.3671H30.4419V27.888H34.3003V29.298H30.4419V33.2426H28.7598Z" fill="white"/>
</g>
<defs>
<clipPath id="clip0_620_5004">
<rect width="44.8" height="44.8" fill="white" transform="translate(0.599976 0.600098)"/>
</clipPath>
</defs>
</svg>
