<svg width="28" height="28" viewBox="0 0 28 28" fill="none" xmlns="http://www.w3.org/2000/svg">
<path d="M11.0834 2.0415C10.5984 2.0415 10.1641 2.34149 9.99232 2.795L9.72446 3.50232C9.15025 3.44495 8.6212 3.38768 8.19293 3.33959C7.87278 3.30365 7.60961 3.2729 7.4268 3.25119L7.21593 3.22588L7.14431 3.21712C6.50487 3.13795 5.9214 3.59202 5.84222 4.23146C5.76303 4.87091 6.21721 5.45347 6.85666 5.53266L6.93458 5.54219L7.15156 5.56823C7.33863 5.59045 7.60681 5.62178 7.93257 5.65836C8.58353 5.73145 9.46704 5.8258 10.394 5.9104C11.6444 6.02452 13.015 6.12484 14 6.12484C14.985 6.12484 16.3557 6.02452 17.6061 5.9104C18.533 5.8258 19.4166 5.73145 20.0675 5.65836C20.3933 5.62178 20.6615 5.59045 20.8485 5.56823L21.0655 5.54219L21.1433 5.53268C21.7827 5.45349 22.237 4.87091 22.1579 4.23146C22.0787 3.59202 21.4961 3.13784 20.8567 3.21701L20.7841 3.22588L20.5733 3.25119C20.3905 3.2729 20.1273 3.30365 19.8072 3.33959C19.3789 3.38768 18.8498 3.44495 18.2756 3.50232L18.0078 2.795C17.836 2.34149 17.4016 2.0415 16.9167 2.0415H11.0834Z" fill="#D42620"/>
<path d="M12.8334 13.7082C12.8334 13.0638 12.311 12.5415 11.6667 12.5415C11.0224 12.5415 10.5 13.0638 10.5 13.7082V19.5415C10.5 20.1858 11.0224 20.7082 11.6667 20.7082C12.311 20.7082 12.8334 20.1858 12.8334 19.5415V13.7082Z" fill="#D42620"/>
<path d="M16.3334 12.5415C16.9777 12.5415 17.5 13.0638 17.5 13.7082V19.5415C17.5 20.1858 16.9777 20.7082 16.3334 20.7082C15.689 20.7082 15.1667 20.1858 15.1667 19.5415V13.7082C15.1667 13.0638 15.689 12.5415 16.3334 12.5415Z" fill="#D42620"/>
<path fill-rule="evenodd" clip-rule="evenodd" d="M22.0613 9.39215C22.167 7.91193 20.8909 6.72524 19.4405 6.89285C17.9565 7.06436 15.6664 7.2915 14 7.2915C12.3336 7.2915 10.0436 7.06436 8.55953 6.89285C7.10921 6.72524 5.83305 7.91192 5.93878 9.39215L6.9383 23.3855C7.01407 24.4462 7.80418 25.3431 8.88846 25.5061C10.0512 25.681 12.1846 25.9603 14.0014 25.9582C15.7958 25.9561 17.938 25.678 19.1058 25.5048C20.1919 25.3436 20.986 24.4462 21.062 23.3823L22.0613 9.39215ZM19.7084 9.21076C19.7125 9.21029 19.7156 9.21057 19.7156 9.21057L19.7187 9.21127C19.7212 9.21216 19.7253 9.21429 19.7293 9.21811C19.732 9.22063 19.734 9.22371 19.734 9.22371L19.7339 9.22591L18.7357 23.2008C17.5799 23.3716 15.599 23.623 13.9987 23.6248C12.381 23.6267 10.4124 23.375 9.26456 23.2031L8.26618 9.22591L8.2661 9.22371C8.2661 9.22371 8.26808 9.22063 8.27074 9.21811C8.27476 9.21429 8.27883 9.21216 8.28143 9.21127L8.28451 9.21057C8.28451 9.21057 8.28761 9.21029 8.29166 9.21076C9.77832 9.38257 12.1864 9.62484 14 9.62484C15.8137 9.62484 18.2218 9.38257 19.7084 9.21076Z" fill="#D42620"/>
</svg>
