<svg width="80" height="80" viewBox="0 0 80 80" fill="none" xmlns="http://www.w3.org/2000/svg">
<circle cx="40" cy="40" r="40" fill="#D1FADF"/>
<circle cx="40" cy="40" r="32" fill="#12B76A"/>
<path d="M60.7508 30.2492C60.7508 30.9675 60.4994 31.578 59.9966 32.0808L40.495 51.5825L36.8316 55.2458C36.3288 55.7486 35.7183 56 35 56C34.2817 56 33.6712 55.7486 33.1684 55.2458L29.5051 51.5825L19.7542 41.8316C19.2514 41.3288 19 40.7183 19 40C19 39.2817 19.2514 38.6712 19.7542 38.1684L23.4175 34.5051C23.9203 34.0022 24.5309 33.7508 25.2492 33.7508C25.9675 33.7508 26.578 34.0022 27.0808 34.5051L35 42.4512L52.67 24.7542C53.1728 24.2514 53.7834 24 54.5017 24C55.22 24 55.8305 24.2514 56.3333 24.7542L59.9966 28.4175C60.4994 28.9203 60.7508 29.5309 60.7508 30.2492Z" fill="white"/>
</svg>
